<svg id="Microsoft" xmlns="http://www.w3.org/2000/svg" viewBox="0 0 180 67.63"><defs><style>.cls-1{fill:#818181;}</style></defs><title>Artboard 1</title><path id="Path_1433" data-name="Path 1433" class="cls-1" d="M1.13,14.84H19.19V32.9H1.13Z"/><path id="Path_1434" data-name="Path 1434" class="cls-1" d="M21,14.84H39.09V32.9H21Z"/><path id="Path_1435" data-name="Path 1435" class="cls-1" d="M164,21.72a7.05,7.05,0,0,1,5.69-.67v3.34a3.75,3.75,0,0,0-2.88-.26,2.3,2.3,0,0,0-1.3,1.82,26,26,0,0,0-.07,2.93h5.71V25.17c1.3-.37,2.58-.79,3.86-1.17v4.89h3.86v3.17c-1.29-.06-2.58,0-3.88,0v5.47a25,25,0,0,0,.07,3,2,2,0,0,0,.84,1.56,2.92,2.92,0,0,0,3-.28V45a7.64,7.64,0,0,1-3.57.54,4.3,4.3,0,0,1-3.08-1.41,5.83,5.83,0,0,1-1.1-3.72V32h-5.71V45.2H161.5V32h-2.72V28.87h2.71a17.07,17.07,0,0,1,.27-4.16,5.33,5.33,0,0,1,2.2-3Z"/><path id="Path_1436" data-name="Path 1436" class="cls-1" d="M80.35,22a2.38,2.38,0,0,1,2.16.76,2.24,2.24,0,0,1,.27,2.54,2.43,2.43,0,0,1-2.6,1.09,2.22,2.22,0,0,1-1.82-2.18,2.26,2.26,0,0,1,2-2.21Z"/><path id="Path_1437" data-name="Path 1437" class="cls-1" d="M50.42,22.43H56.1q2.65,6.74,5.32,13.46c.45,1.12.87,2.26,1.35,3.37,2.27-5.61,4.58-11.2,6.83-16.82h5.47V45.21H71.13V27.66c-.07.12-.14.24-.2.36-2.26,5.74-4.56,11.45-6.8,17.19H61.32L54.36,28c-.06-.12-.13-.23-.2-.35V45.22H50.42V22.44Z"/><path id="Path_1438" data-name="Path 1438" class="cls-1" d="M91.09,28.86a10.78,10.78,0,0,1,5.8,0,4.59,4.59,0,0,1,1.12.47v3.73a6.18,6.18,0,0,0-4.45-1.37,4.6,4.6,0,0,0-3.24,1.8,6.34,6.34,0,0,0-1,4.52A4.62,4.62,0,0,0,94.1,42.4h.39A7.42,7.42,0,0,0,98,40.92v3.54a9.49,9.49,0,0,1-5.33,1.11,7.92,7.92,0,0,1-5.09-2.13A8.07,8.07,0,0,1,85.22,38a9.83,9.83,0,0,1,1.54-6.06,7.91,7.91,0,0,1,4.33-3.06Z"/><path id="Path_1439" data-name="Path 1439" class="cls-1" d="M133.75,28.62a10.26,10.26,0,0,1,5.4.56v3.59a6.88,6.88,0,0,0-4.1-1.21,2.09,2.09,0,0,0-1.87,1,1.69,1.69,0,0,0,.57,2c1.11.74,2.43,1,3.58,1.72a5.12,5.12,0,0,1,2.24,2.13,4.78,4.78,0,0,1-1,5.49,7.46,7.46,0,0,1-5.43,1.65,12,12,0,0,1-4-.91V40.86a8.37,8.37,0,0,0,3.54,1.53,4.51,4.51,0,0,0,2.69-.24,1.55,1.55,0,0,0,.52-2.14h0v-.07a4.71,4.71,0,0,0-1.7-1.12,16.22,16.22,0,0,1-3.37-1.72,4.13,4.13,0,0,1-1.46-2.22A5,5,0,0,1,129.9,31a5.76,5.76,0,0,1,3.89-2.39Z"/><path id="Path_1440" data-name="Path 1440" class="cls-1" d="M106.74,29.13a4.41,4.41,0,0,1,3.62-.31v3.91a4.24,4.24,0,0,0-2.64-.62,3.27,3.27,0,0,0-2.44,2,7.21,7.21,0,0,0-.56,3.34v7.8h-3.85V28.88h3.86v2.8a5,5,0,0,1,2-2.55Z"/><path id="Path_1441" data-name="Path 1441" class="cls-1" d="M78.72,28.88H82.6V45.19H78.72Z"/><path id="Path_1442" data-name="Path 1442" class="cls-1" d="M126.55,32.69a6.9,6.9,0,0,0-3.41-3.45,10.38,10.38,0,0,0-5.59-.66,7.77,7.77,0,0,0-5.13,2.75,8.61,8.61,0,0,0-1.8,5,9.31,9.31,0,0,0,1.43,6.1,7.32,7.32,0,0,0,4.51,2.94,11,11,0,0,0,4.57,0,7.5,7.5,0,0,0,4.48-2.76,8.7,8.7,0,0,0,1.72-4.75A10.76,10.76,0,0,0,126.55,32.69Zm-3.77,7.49a3.59,3.59,0,0,1-1.92,1.89,5.31,5.31,0,0,1-3.18.14,3.92,3.92,0,0,1-2.45-2,7.46,7.46,0,0,1-.59-4.09,5.19,5.19,0,0,1,1.5-3.4,4.12,4.12,0,0,1,2.57-1A4.22,4.22,0,0,1,122,32.79a5.29,5.29,0,0,1,1.35,3.4A8.63,8.63,0,0,1,122.78,40.18Z"/><path id="Path_1443" data-name="Path 1443" class="cls-1" d="M157.82,33.16a7,7,0,0,0-3.35-3.8,10.14,10.14,0,0,0-5.8-.79,8.16,8.16,0,0,0-4.32,1.86,8,8,0,0,0-2.57,5,10.76,10.76,0,0,0,.61,5.67,7.26,7.26,0,0,0,4,3.85,10.51,10.51,0,0,0,5.5.46,7.61,7.61,0,0,0,4.8-2.81A9,9,0,0,0,158.46,37,10.48,10.48,0,0,0,157.82,33.16Zm-3.52,5.53a5.06,5.06,0,0,1-1,2.4,3.64,3.64,0,0,1-2.3,1.23,5.11,5.11,0,0,1-2.79-.3,3.94,3.94,0,0,1-2.06-2.15,7.84,7.84,0,0,1-.47-3.56,5.65,5.65,0,0,1,1.19-3.25,4,4,0,0,1,2.85-1.37,4.32,4.32,0,0,1,3.13.93,4.47,4.47,0,0,1,1.41,2.6,10.11,10.11,0,0,1,0,3.47Z"/><path id="Path_1444" data-name="Path 1444" class="cls-1" d="M1.13,34.74H19.19v18H1.13Z"/><path id="Path_1445" data-name="Path 1445" class="cls-1" d="M21,34.74H39.09v18H21Z"/></svg>