<?xml version="1.0" standalone="no"?>
<!DOCTYPE svg PUBLIC "-//W3C//DTD SVG 20010904//EN"
 "http://www.w3.org/TR/2001/REC-SVG-20010904/DTD/svg10.dtd">
<svg version="1.0" xmlns="http://www.w3.org/2000/svg"
 width="101.000000pt" height="126.000000pt" viewBox="0 0 101.000000 126.000000"
 preserveAspectRatio="xMidYMid meet">
<metadata>
Created by potrace 1.15, written by Peter Selinger 2001-2017
</metadata>
<g transform="translate(0.000000,126.000000) scale(0.100000,-0.100000)"
fill="#000000" stroke="none">
<path d="M728 1221 c46 -8 66 -23 77 -59 5 -17 -1 -30 -25 -53 -28 -29 -35
-31 -77 -25 -26 3 -103 25 -172 48 -92 30 -148 42 -206 45 -73 4 -85 2 -135
-24 -134 -69 -162 -236 -51 -310 41 -28 60 -30 38 -5 -27 29 -21 79 11 109 25
24 32 25 102 20 46 -4 123 -21 201 -46 170 -53 233 -64 296 -51 147 32 206
209 101 307 -32 31 -101 53 -157 52 l-46 -2 43 -6z"/>
<path d="M395 906 c-237 -76 -375 -267 -344 -482 31 -223 233 -384 481 -384
224 0 374 114 423 322 8 35 15 79 15 97 l0 35 -26 -52 c-33 -67 -119 -144
-192 -173 -46 -19 -76 -23 -162 -24 -92 0 -112 3 -160 26 -70 33 -117 79 -149
149 -21 45 -25 71 -26 140 0 118 9 154 43 168 18 8 20 10 5 6 -30 -7 -29 3 5
57 27 41 75 89 118 116 24 15 19 15 -31 -1z"/>
<path d="M461 807 c-62 -29 -106 -53 -97 -55 14 -3 16 -28 16 -224 0 -121 4
-218 9 -216 4 2 49 21 100 43 l91 39 0 233 c0 128 -1 233 -2 232 -2 -1 -54
-24 -117 -52z"/>
<path d="M685 655 l-60 -54 59 -53 c33 -29 63 -53 66 -53 3 0 33 24 66 53 l59
54 -60 54 c-33 29 -62 53 -65 53 -3 0 -32 -24 -65 -54z"/>
</g>
</svg>
