<svg id="ATT" xmlns="http://www.w3.org/2000/svg" viewBox="0 0 180 67.63"><defs><style>.cls-1{fill:#818181;}</style></defs><title>Artboard 1</title><g id="Group_1567" data-name="Group 1567"><g id="Group_1566" data-name="Group 1566"><g id="Group_1565" data-name="Group 1565"><path id="Path_1452" data-name="Path 1452" class="cls-1" d="M134.52,40.6h0A4.35,4.35,0,0,1,131,42.48a3,3,0,0,1-3.18-2.81v-.05h0c0-1.45.62-2.32,2.45-3.42a.3.3,0,0,1,.36,0l3.83,4a.32.32,0,0,1,.1.21h0A.41.41,0,0,1,134.52,40.6ZM131.9,27.75a1.77,1.77,0,0,1,1.88,1.65h0a.74.74,0,0,1,0,.21c0,1.2-1.07,1.9-2.36,2.62h-.07a.27.27,0,0,1-.32-.06h0a4.34,4.34,0,0,1-1.22-2.3,2.05,2.05,0,0,1,2-2.14h.13Zm10.32,16.19-3.64-3.77a.3.3,0,0,1-.05-.41l2.77-4.68a.48.48,0,0,0,.07-.26.55.55,0,0,0-.53-.54h-2a.56.56,0,0,0-.48.28l-1.77,3a.27.27,0,0,1-.38.06h0l-2.84-2.93a.22.22,0,0,1-.07-.17.25.25,0,0,1,.09-.2h0c1.6-.94,3.44-2.31,3.44-4.74,0-2.78-2-4.65-5-4.65a4.83,4.83,0,0,0-5.12,4.49v.37a6.18,6.18,0,0,0,1.64,3.9h0a.24.24,0,0,1,.06.2.3.3,0,0,1-.1.19c-2.42,1.37-3.64,3.2-3.64,5.43,0,3.79,3.16,5.77,6.3,5.77a6.8,6.8,0,0,0,5.43-2.68h0a.28.28,0,0,1,.38,0l2,2h.05a.55.55,0,0,0,.38.16h2.59a.54.54,0,0,0,.54-.54.51.51,0,0,0-.15-.37Z"/><path id="Path_1453" data-name="Path 1453" class="cls-1" d="M122.29,42.44h-.12c-2.92,0-4.41-1.55-4.41-4.6v-9a.29.29,0,0,1,.29-.28h4.58a.55.55,0,0,0,.55-.55h0V26a.54.54,0,0,0-.54-.54h-4.57a.29.29,0,0,1-.3-.3h0V21a.55.55,0,0,0-.53-.56h-.06l-2.35.18a.55.55,0,0,0-.53.54v4a.29.29,0,0,1-.28.28h-2.89a.57.57,0,0,0-.55.55v2a.58.58,0,0,0,.57.54H114a.29.29,0,0,1,.28.28v9.61c0,5.16,3.89,7,7.29,7h.71a.54.54,0,0,0,.54-.54h0V43a.55.55,0,0,0-.54-.55Z"/><path id="Path_1454" data-name="Path 1454" class="cls-1" d="M105.62,36.62c-.46,3.28-2.08,5.18-5.06,5.67-2.1.34-4-.52-4.11-2.77-.12-2.47,2.76-4.55,8.06-4.32h.65a.58.58,0,0,1,.47.24A2.23,2.23,0,0,1,105.62,36.62Zm3.54,7.45a5.19,5.19,0,0,1-.25-1.35V32.26c0-5-3.56-6.82-6.88-6.82a12.4,12.4,0,0,0-6.59,1.72.65.65,0,0,0-.24.35.56.56,0,0,0,.08.4l1.23,1.66a.53.53,0,0,0,.74.12h0l.17-.11a7.69,7.69,0,0,1,4.09-1.18c4.1,0,4,3.21,4,3.63,0,.21-.13.26-.28.26h-.63c-3.19-.12-11.27,1-11.27,7.37,0,3.76,3.14,5.68,6.06,5.68a8.14,8.14,0,0,0,6.26-2.5h0a.06.06,0,0,1,.06,0,.07.07,0,0,1,.07.07h0v.92a2.85,2.85,0,0,0,.12.71.6.6,0,0,0,.28.38.86.86,0,0,0,.23.06h2.28a.53.53,0,0,0,.53-.53A1.21,1.21,0,0,0,109.16,44.07Z"/><path id="Path_1455" data-name="Path 1455" class="cls-1" d="M153.16,42.44H153c-2.93,0-4.41-1.55-4.41-4.6v-9a.29.29,0,0,1,.28-.28h4.59A.55.55,0,0,0,154,28h0V26a.55.55,0,0,0-.55-.54h-4.57a.32.32,0,0,1-.3-.3V21a.54.54,0,0,0-.52-.56H148l-2.35.18a.55.55,0,0,0-.53.54v4a.29.29,0,0,1-.28.28H142a.55.55,0,0,0-.54.55h0v2a.56.56,0,0,0,.56.54h2.87a.27.27,0,0,1,.28.26v0h0v9.6c0,5.16,3.88,7,7.29,7a4.21,4.21,0,0,0,.71,0,.54.54,0,0,0,.54-.54V43a.55.55,0,0,0-.55-.54Z"/></g></g></g><path id="Path_1456" data-name="Path 1456" class="cls-1" d="M37.69,12c.21,2.89,7.86,5.16,17.09,4.92s16.3-2.89,16.3-5.78c0-.83-.62-1.57-1.71-2.21a28.86,28.86,0,0,0-29.75.34C38.32,10.12,37.63,11.06,37.69,12Zm8.25,14.3c3,.39,11.08,1.49,17.3,1C75.81,26.3,78.6,21.87,78.6,19a5.64,5.64,0,0,0-.85-2.58A28,28,0,0,0,74,12.34a2,2,0,0,1,.49,1.18c.11,1.94-3.06,4.54-9.48,6.67a49.2,49.2,0,0,1-15.87,2.6c-11.07,0-14.9-4.2-14.9-6.82a6,6,0,0,1,2.52-4.66,29,29,0,0,0-6.06,6.63,2,2,0,0,0-.28,1C30.42,21.68,37,25.16,45.94,26.3ZM36.53,45.6c6.23,2.55,16.12,4.49,21.74,4.28,20.28-.72,24.78-11,25.25-13.94,0-.7.07-1.41.07-2.12A29,29,0,0,0,82.78,27a11.49,11.49,0,0,1,.27,2.33c0,1,.19,9.85-20,14.36-12.12,2.7-17.24,2.62-25.57,0C30.14,41.36,26.16,36,26,31.43c-.06.78-.1,1.58-.1,2.39A17.88,17.88,0,0,0,26,35.76c.53,3.81,5.5,7.8,10.52,9.85Zm17,14.08c-4.39,0-13.94-.7-20.16-6.54a28.84,28.84,0,0,0,46.87-5.83c-1.5,2.61-8.13,12.38-26.71,12.38Zm.63-5.8c-3.65.4-24.77,1.36-27.85-15.41a28.89,28.89,0,0,0,2.35,7.6,19.72,19.72,0,0,0,9.4,7.65c24.78,10.23,40-1.95,43-8a28.38,28.38,0,0,0,2.35-8.37C83,39.59,80.74,50.94,54.17,53.88ZM27,26a29,29,0,0,1,1.8-4.75,6.75,6.75,0,0,0-.51,2.88c0,7,15.18,14,33.8,8.86,7.25-2,18.1-5.78,18.1-11.6a4.36,4.36,0,0,0-.84-2.63,28.77,28.77,0,0,1,2.88,6.31,7,7,0,0,1,.3,2.31c0,1.43-1.78,10.18-19.24,11.76A85.77,85.77,0,0,1,41.05,37c-6.41-1.6-12.85-4.74-14-9.09A3.45,3.45,0,0,1,27,26Z"/></svg>