<svg id="Dropbox" xmlns="http://www.w3.org/2000/svg" viewBox="0 0 180 67.63"><defs><style>.cls-1{fill:#818181;}</style></defs><title>Artboard 1</title><path id="Path_1450" data-name="Path 1450" class="cls-1" d="M21.31,22.83,10.93,29.45l10.38,6.63L10.93,42.71.56,36l10.38-6.6L.56,22.83,10.94,16.2l10.38,6.63Zm-10.43,22,10.38-6.62L31.64,44.8,21.26,51.43ZM21.31,36l10.38-6.6L21.31,22.83,31.64,16.2,42,22.83,31.64,29.45,42,36.08,31.64,42.71,21.32,36Z"/><path id="Path_1451" data-name="Path 1451" class="cls-1" d="M50.14,22.83h8.39c5.35,0,9.77,3.09,9.77,10.16v1.49c0,7.12-4.14,10.32-9.61,10.32H50.14Zm4.69,4v14h3.59c3,0,5.08-2,5.08-6.4V33.21c0-4.41-2.16-6.4-5.25-6.4Zm16,.22h3.75l.61,4.15c.72-2.82,2.54-4.31,5.85-4.31H82.2v4.75h-2c-3.81,0-4.75,1.32-4.75,5.08v8.17H70.84V27.05ZM83.1,36.3v-.5c0-6,3.81-9.22,9-9.22s9,3.26,9,9.22v.5c0,5.85-3.59,9-9,9C86.36,45.24,83.1,42.15,83.1,36.3Zm13.25-.06V35.8c0-3.31-1.66-5.3-4.31-5.3s-4.3,1.82-4.3,5.3v.44c0,3.2,1.65,5,4.3,5S96.35,39.45,96.35,36.24ZM103.53,27h3.86l.44,3.37a6,6,0,0,1,5.86-3.81c4.52,0,7.51,3.26,7.51,9.28v.5c0,5.85-3.32,8.94-7.51,8.94A5.83,5.83,0,0,1,108,42v9h-4.53Zm13,9.22v-.38c0-3.54-1.82-5.3-4.25-5.3-2.59,0-4.31,2-4.31,5.3v.33c0,3.15,1.66,5.13,4.26,5.13s4.27-1.74,4.27-5.06ZM128,41.54l-.39,3.26h-4V21.06h4.53v9.11a5.85,5.85,0,0,1,5.8-3.59c4.25.06,7.4,3,7.4,8.89V36c0,5.91-3,9.28-7.51,9.28A5.9,5.9,0,0,1,128,41.53ZM136.66,36v-.44c0-3.26-1.77-5.08-4.26-5.08s-4.3,2-4.3,5.14V36c0,3.32,1.71,5.25,4.25,5.25C135.05,41.25,136.66,39.54,136.66,36Zm6.73.28v-.5c0-6,3.81-9.22,9-9.22s9,3.26,9,9.22v.5c0,5.85-3.64,9-9,9-5.74,0-9-3.13-9-9Zm13.31-.06V35.8c0-3.31-1.66-5.3-4.31-5.3s-4.31,1.82-4.31,5.3v.44c0,3.2,1.66,5,4.31,5s4.31-1.79,4.31-5Zm10.76-.66L161.22,27h5.36l3.59,5.36L173.81,27h5.3l-6.35,8.5,6.68,9.28H174.2l-4.09-5.91-4,5.91h-5.47l6.79-9.22Z"/></svg>