<svg id="Layer_1" data-name="Layer 1" xmlns="http://www.w3.org/2000/svg" viewBox="0 0 180 67.63"><defs><style>.cls-1{fill:#818181;}</style></defs><title>Artboard 1</title><path id="sonos" class="cls-1" d="M84.58,30.56V44.07H81.46V22.93l14,14.1V23.46h3.12V44.67Zm32.33-7.93A11.17,11.17,0,1,0,128,33.89V33.8A11.15,11.15,0,0,0,116.91,22.63Zm0,19.17a8,8,0,0,1-7.85-8,7.85,7.85,0,0,1,15.7-.43,3.09,3.09,0,0,1,0,.43A7.92,7.92,0,0,1,116.91,41.8ZM63.08,22.63A11.17,11.17,0,1,0,74.15,33.9v-.1A11.13,11.13,0,0,0,63.08,22.63Zm0,19.17a8,8,0,0,1-7.85-8,7.85,7.85,0,0,1,15.7-.35v.35A8,8,0,0,1,63.08,41.8ZM38.42,35.37h0a14.72,14.72,0,0,1-4.53-2.14,5.34,5.34,0,0,1-2.27-4.38,5.91,5.91,0,0,1,2.08-4.39,7.89,7.89,0,0,1,5.22-1.83,9.2,9.2,0,0,1,6.74,3L43.1,27.37a7.19,7.19,0,0,0-4.18-1.45c-2.55,0-4.07,1.5-4.07,3,0,1,.55,2.13,4.55,3.41h0a14.72,14.72,0,0,1,4.53,2.14,5.34,5.34,0,0,1,2.27,4.38,5.85,5.85,0,0,1-2.08,4.39A7.84,7.84,0,0,1,38.91,45a9.18,9.18,0,0,1-6.75-3l2.57-1.75a7.18,7.18,0,0,0,4.18,1.46c2.54,0,4.06-1.5,4.06-3C43,37.77,42.42,36.65,38.42,35.37Zm102.19,0h0a14.61,14.61,0,0,1-4.53-2.14,5.31,5.31,0,0,1-2.27-4.38,5.85,5.85,0,0,1,2.07-4.39,7.89,7.89,0,0,1,5.22-1.83,9.18,9.18,0,0,1,6.75,3l-2.57,1.74a7.19,7.19,0,0,0-4.18-1.45c-2.54,0-4.06,1.5-4.06,3,0,1,.55,2.13,4.55,3.41h0a14.61,14.61,0,0,1,4.53,2.14,5.34,5.34,0,0,1,2.27,4.38,5.9,5.9,0,0,1-2.07,4.39A7.87,7.87,0,0,1,141.09,45a9.16,9.16,0,0,1-6.74-3l2.57-1.74a7.14,7.14,0,0,0,4.17,1.45c2.55,0,4.07-1.5,4.07-3,0-1-.55-2.13-4.55-3.41Z"/></svg>